<svg width="64" height="64" viewBox="0 0 64 64" fill="none" xmlns="http://www.w3.org/2000/svg">
<path d="M6.40488 26.6744C6.40488 36.9901 10.8103 43.8644 19.2513 47.0435C16.7504 47.5327 14.9436 49.7208 14.9365 52.2691V54.402C14.943 59.7001 19.2363 63.9935 24.5345 64H39.4648C44.7629 63.9935 49.0563 59.7001 49.0628 54.402V52.2691C49.0557 49.7207 47.2489 47.5325 44.7479 47.0435C53.1888 43.8644 57.5944 36.9901 57.5944 26.6744C57.6511 21.3243 56.1706 16.0704 53.3287 11.5372V6.21571C54.7977 5.69632 55.6789 4.19413 55.4155 2.65832C55.1518 1.12252 53.8202 0 52.262 0C50.7038 0 49.3722 1.12252 49.1088 2.65832C48.8453 4.19413 49.7265 5.69632 51.1956 6.21571V8.66858C46.3876 3.09223 39.3619 -0.0756094 31.9996 0.0132473C24.637 -0.0753594 17.6113 3.09286 12.8036 8.66958V6.21671C14.2726 5.69732 15.1538 4.19513 14.8904 2.65932C14.6269 1.12364 13.2953 0.00112476 11.7371 0.00112476C10.179 0.00112476 8.84737 1.12364 8.5838 2.65945C8.32036 4.19526 9.20155 5.69745 10.6706 6.21684V11.5384C7.82896 16.0713 6.34839 21.3247 6.40488 26.6744ZM52.262 2.14618C52.851 2.14618 53.3284 2.62371 53.3284 3.21258C53.3284 3.80146 52.851 4.27899 52.262 4.27899C51.673 4.27899 51.1956 3.80146 51.1956 3.21258C51.1956 2.62371 51.6731 2.14618 52.262 2.14618ZM11.7371 2.14618C12.3262 2.14618 12.8036 2.62371 12.8036 3.21258C12.8036 3.80146 12.326 4.27899 11.7371 4.27899C11.1483 4.27899 10.6707 3.80146 10.6707 3.21258C10.6707 2.62371 11.1481 2.14618 11.7371 2.14618ZM36.2653 49.0697V53.3355C36.2653 55.6913 34.3555 57.6012 31.9996 57.6012C29.6437 57.6012 27.7338 55.6913 27.7338 53.3355V49.0697H36.2653ZM46.9299 52.2691V54.402C46.9251 58.5229 43.5857 61.8624 39.4648 61.8671H24.5345C20.4136 61.8623 17.074 58.5229 17.0694 54.402V52.2691C17.0694 50.5022 18.5019 49.0697 20.2688 49.0697H25.601V53.3355C25.601 56.8694 28.4658 59.7341 31.9997 59.7341C35.5336 59.7341 38.3984 56.8694 38.3984 53.3355V49.0697H43.7306C45.4974 49.0697 46.9299 50.5022 46.9299 52.2691ZM31.9996 2.14618C45.3749 2.14618 55.4613 12.6912 55.4613 26.6745C55.4613 40.1192 47.5696 46.9369 31.9996 46.9369C16.4296 46.9369 8.53781 40.1191 8.53781 26.6744C8.53781 12.6911 18.6242 2.14618 31.9996 2.14618Z" fill="black"/>
<path d="M23.4682 39.4717H40.5315C47.5993 39.4717 53.3288 33.7421 53.3288 26.6743C53.3288 19.6065 47.5993 13.877 40.5315 13.877H23.4682C16.4005 13.877 10.6709 19.6065 10.6709 26.6743C10.6709 33.7421 16.4005 39.4717 23.4682 39.4717ZM23.4682 16.0099H40.5315C46.4212 16.0099 51.1959 20.7845 51.1959 26.6743C51.1959 32.5641 46.4212 37.3387 40.5315 37.3387H23.4682C17.5785 37.3387 12.8038 32.5641 12.8038 26.6743C12.8038 20.7845 17.5785 16.0099 23.4682 16.0099Z" fill="black"/>
<path d="M28.7998 11.7441H35.1985C35.7875 11.7441 36.2649 11.2666 36.2649 10.6777C36.2649 10.0887 35.7874 9.61133 35.1985 9.61133H28.7998C28.2108 9.61133 27.7334 10.0889 27.7334 10.6777C27.7334 11.2666 28.2108 11.7441 28.7998 11.7441Z" fill="black"/>
<path d="M30.9336 8.54492H33.0665C33.6555 8.54492 34.1329 8.06739 34.1329 7.47851C34.1329 6.88964 33.6555 6.41211 33.0665 6.41211H30.9336C30.3446 6.41211 29.8672 6.88964 29.8672 7.47851C29.8672 8.06739 30.3446 8.54492 30.9336 8.54492Z" fill="black"/>
<path d="M20.2687 28.8069C22.6246 28.8069 24.5344 26.897 24.5344 24.5411C24.5344 22.1852 22.6246 20.2754 20.2687 20.2754C17.9128 20.2754 16.0029 22.1852 16.0029 24.5411C16.0029 26.897 17.9128 28.8069 20.2687 28.8069ZM20.2687 22.4082C21.4467 22.4082 22.4016 23.3631 22.4016 24.5411C22.4016 25.7191 21.4467 26.6741 20.2687 26.6741C19.0907 26.6741 18.1357 25.7191 18.1357 24.5411C18.1359 23.3631 19.0908 22.4082 20.2687 22.4082Z" fill="black"/>
<path d="M43.7306 28.8069C46.0865 28.8069 47.9963 26.897 47.9963 24.5411C47.9963 22.1852 46.0865 20.2754 43.7306 20.2754C41.3747 20.2754 39.4648 22.1852 39.4648 24.5411C39.4648 26.897 41.3746 28.8069 43.7306 28.8069ZM43.7306 22.4082C44.9086 22.4082 45.8635 23.3631 45.8635 24.5411C45.8635 25.7191 44.9086 26.6741 43.7306 26.6741C42.5526 26.6741 41.5977 25.7191 41.5977 24.5411C41.5977 23.3631 42.5526 22.4082 43.7306 22.4082Z" fill="black"/>
<path d="M31.9993 35.2064C34.9427 35.2029 37.3279 32.8177 37.3315 29.8741C37.3315 28.6961 36.3766 27.7412 35.1986 27.7412H28.7999C27.6219 27.7412 26.667 28.6961 26.667 29.8741C26.6706 32.8177 29.0559 35.2029 31.9993 35.2064ZM35.1986 29.8741C35.1986 31.641 33.7663 33.0735 31.9993 33.0735C30.2324 33.0735 28.7999 31.641 28.7999 29.8741H35.1986Z" fill="black"/>
<path d="M32 54.4023C32.589 54.4023 33.0664 53.9249 33.0664 53.3359C33.0664 52.747 32.589 52.2695 32 52.2695C31.411 52.2695 30.9336 52.747 30.9336 53.3359C30.9336 53.9249 31.411 54.4023 32 54.4023Z" fill="black"/>
</svg>
