<svg width="64" height="64" viewBox="0 0 64 64" fill="none" xmlns="http://www.w3.org/2000/svg">
<path d="M8.15364 33.6431C7.98225 33.6432 7.81471 33.5924 7.67228 33.497C7.52984 33.4017 7.41894 33.2662 7.35364 33.1078C7.02065 32.2965 6.73505 31.4666 6.49829 30.6222C6.43934 30.4024 6.46935 30.1683 6.58184 29.9705C6.69432 29.7727 6.88021 29.6272 7.09922 29.5656C7.31823 29.5039 7.55272 29.531 7.75187 29.6411C7.95102 29.7511 8.09879 29.9352 8.16315 30.1534C8.38167 30.9333 8.64561 31.6997 8.95364 32.4488C9.00779 32.5802 9.02872 32.7229 9.01458 32.8643C9.00044 33.0057 8.95167 33.1415 8.87257 33.2596C8.79348 33.3777 8.68651 33.4744 8.56111 33.5413C8.43571 33.6082 8.29576 33.6432 8.15364 33.6431Z" fill="black"/>
<path d="M34.7099 62.2631C27.272 62.2683 20.0611 59.7017 14.2991 54.9982C14.1965 54.9173 14.1135 54.8142 14.0564 54.6966C13.9993 54.579 13.9697 54.45 13.9696 54.3193V50.0279C13.97 48.7015 13.8382 47.3783 13.5761 46.078C13.5302 45.8531 13.5756 45.6192 13.7022 45.4277C13.8287 45.2363 14.0262 45.1029 14.2511 45.0571C14.476 45.0112 14.7099 45.0565 14.9014 45.1831C15.0929 45.3097 15.2262 45.5072 15.2721 45.7321C15.5566 47.1454 15.6998 48.5836 15.6993 50.0253V53.8981C19.0683 56.6058 22.977 58.5621 27.1636 59.636C31.3503 60.71 35.718 60.8768 39.9744 60.1252V50.6117C39.9744 50.3823 40.0655 50.1623 40.2277 50.0001C40.3899 49.8379 40.6098 49.7468 40.8392 49.7468H49.8632C50.3929 49.7463 50.9007 49.5357 51.2751 49.1611C51.6495 48.7865 51.86 48.2786 51.8602 47.749V40.2082C51.8602 40.0315 51.9143 39.859 52.0153 39.7139C52.1162 39.5689 52.2592 39.4583 52.425 39.397L56.3168 37.9578C56.377 37.9353 56.4308 37.8985 56.4736 37.8506C56.5164 37.8027 56.5469 37.7451 56.5625 37.6828C56.5801 37.6201 56.5822 37.554 56.5687 37.4903C56.5551 37.4265 56.5263 37.3671 56.4846 37.317L52.1776 32.1053C51.7108 31.5369 51.3728 30.8741 51.1869 30.1625C51.001 29.4509 50.9716 28.7074 51.1008 27.9833C51.2896 26.879 51.3859 25.7609 51.3888 24.6406C51.3888 12.9606 41.5225 3.45922 29.3936 3.45922C17.4766 3.45922 7.62149 12.7998 7.42517 24.2782C7.42488 24.3924 7.40169 24.5053 7.35696 24.6103C7.31223 24.7153 7.24687 24.8103 7.16477 24.8895C7.08266 24.9688 6.98548 25.0308 6.87897 25.0719C6.77247 25.1129 6.65881 25.1321 6.54474 25.1284C6.3155 25.1243 6.09727 25.0294 5.93801 24.8644C5.77876 24.6995 5.69151 24.4781 5.69544 24.2488C5.9082 11.8311 16.5391 1.72949 29.3936 1.72949C42.4756 1.72949 53.1186 12.0075 53.1186 24.6406C53.1158 25.858 53.0117 27.073 52.8072 28.2731C52.7194 28.7516 52.7366 29.2435 52.8575 29.7148C52.9785 30.1861 53.2003 30.6255 53.5078 31.0026L57.8208 36.2255C58.0359 36.4882 58.1853 36.7983 58.2567 37.1301C58.3282 37.462 58.3196 37.8061 58.2317 38.134C58.1438 38.4619 57.9791 38.7642 57.7513 39.0158C57.5234 39.2675 57.239 39.4612 56.9214 39.5812L53.5899 40.8145V47.7515C53.5888 48.7397 53.1958 49.687 52.4972 50.3858C51.7986 51.0845 50.8513 51.4777 49.8632 51.4791H41.7067V60.8577C41.7068 61.0617 41.6348 61.2591 41.5035 61.4152C41.3721 61.5712 41.1898 61.6758 40.9888 61.7105C38.9154 62.0733 36.8148 62.2582 34.7099 62.2631Z" fill="black"/>
<path d="M12.4633 41.0989C12.3038 41.099 12.1475 41.055 12.0115 40.9718C11.8755 40.8887 11.7652 40.7695 11.6927 40.6276C11.3265 39.8993 10.9164 39.194 10.4645 38.5156C10.3988 38.4215 10.3524 38.3152 10.3282 38.203C10.3039 38.0908 10.3022 37.9749 10.3232 37.8621C10.3441 37.7492 10.3874 37.6417 10.4503 37.5457C10.5133 37.4497 10.5948 37.3672 10.6899 37.3031C10.7851 37.2389 10.8921 37.1943 11.0047 37.1719C11.1173 37.1495 11.2332 37.1497 11.3457 37.1726C11.4582 37.1955 11.565 37.2405 11.6599 37.305C11.7548 37.3696 11.8359 37.4524 11.8985 37.5486C12.3908 38.2846 12.8376 39.05 13.2364 39.8405C13.3038 39.9723 13.3362 40.1192 13.3305 40.2672C13.3248 40.4151 13.2813 40.5591 13.2041 40.6853C13.1268 40.8116 13.0185 40.9159 12.8894 40.9884C12.7603 41.0608 12.6147 41.0988 12.4667 41.0989H12.4633Z" fill="black"/>
<path d="M29.4054 42.3782C26.0376 42.3782 22.7455 41.3795 19.9454 39.5085C17.1452 37.6374 14.9627 34.978 13.674 31.8666C12.3853 28.7552 12.0481 25.3315 12.7052 22.0285C13.3623 18.7255 14.9841 15.6915 17.3655 13.3102C19.7469 10.9289 22.781 9.30723 26.084 8.65032C29.3871 7.99341 32.8108 8.33074 35.9221 9.61964C39.0335 10.9085 41.6927 13.0911 43.5636 15.8914C45.4345 18.6917 46.433 21.9838 46.4329 25.3516C46.4276 29.8658 44.6319 34.1937 41.4398 37.3857C38.2476 40.5777 33.9197 42.3731 29.4054 42.3782ZM29.4054 10.0538C26.3798 10.0538 23.4221 10.951 20.9064 12.632C18.3907 14.3129 16.43 16.7021 15.2721 19.4974C14.1143 22.2927 13.8113 25.3685 14.4016 28.336C14.9919 31.3035 16.4488 34.0293 18.5883 36.1687C20.7277 38.3081 23.4535 39.7651 26.421 40.3554C29.3884 40.9456 32.4643 40.6427 35.2596 39.4848C38.0549 38.327 40.4441 36.3662 42.125 33.8505C43.8059 31.3348 44.7031 28.3772 44.7031 25.3516C44.6988 21.2957 43.0857 17.4072 40.2177 14.5393C37.3498 11.6713 33.4613 10.0582 29.4054 10.0538Z" fill="black"/>
<path d="M26.811 25.3236H13.2672C13.0378 25.3236 12.8179 25.2324 12.6557 25.0702C12.4935 24.9081 12.4023 24.6881 12.4023 24.4587C12.4023 24.2293 12.4935 24.0093 12.6557 23.8471C12.8179 23.6849 13.0378 23.5938 13.2672 23.5938H25.9461V19.8922C25.9461 19.6628 26.0372 19.4428 26.1994 19.2807C26.3616 19.1185 26.5816 19.0273 26.811 19.0273C27.0404 19.0273 27.2604 19.1185 27.4225 19.2807C27.5847 19.4428 27.6759 19.6628 27.6759 19.8922V24.4587C27.6759 24.6881 27.5847 24.9081 27.4225 25.0702C27.2604 25.2324 27.0404 25.3236 26.811 25.3236Z" fill="black"/>
<path d="M26.8112 20.7564C26.1767 20.7566 25.5564 20.5686 25.0287 20.2161C24.5011 19.8637 24.0898 19.3628 23.8469 18.7766C23.604 18.1904 23.5404 17.5453 23.6641 16.923C23.7879 16.3007 24.0934 15.729 24.5421 15.2804C24.9907 14.8317 25.5624 14.5262 26.1847 14.4024C26.8071 14.2787 27.4521 14.3423 28.0383 14.5852C28.6245 14.8281 29.1254 15.2393 29.4779 15.767C29.8303 16.2946 30.0183 16.915 30.0181 17.5495C30.0172 18.3997 29.679 19.2149 29.0778 19.8161C28.4766 20.4173 27.6614 20.7555 26.8112 20.7564ZM26.8112 16.0714C26.5188 16.0712 26.233 16.1578 25.9898 16.3201C25.7466 16.4824 25.557 16.7132 25.445 16.9832C25.333 17.2533 25.3036 17.5505 25.3606 17.8373C25.4175 18.1241 25.5582 18.3875 25.7649 18.5943C25.9716 18.8011 26.2349 18.942 26.5217 18.9991C26.8084 19.0562 27.1056 19.0269 27.3758 18.9151C27.6459 18.8033 27.8768 18.6138 28.0392 18.3707C28.2017 18.1276 28.2884 17.8418 28.2884 17.5495C28.2879 17.1578 28.1322 16.7822 27.8553 16.5051C27.5784 16.2281 27.2029 16.0721 26.8112 16.0714Z" fill="black"/>
<path d="M36.0299 22.988C35.8005 22.988 35.5805 22.8969 35.4184 22.7347C35.2562 22.5725 35.165 22.3525 35.165 22.1231V18.361C35.165 18.1316 35.2562 17.9116 35.4184 17.7494C35.5805 17.5872 35.8005 17.4961 36.0299 17.4961H43.9867C44.216 17.4961 44.436 17.5872 44.5982 17.7494C44.7604 17.9116 44.8515 18.1316 44.8515 18.361C44.8515 18.5903 44.7604 18.8103 44.5982 18.9725C44.436 19.1347 44.216 19.2258 43.9867 19.2258H36.8948V22.1231C36.8948 22.3525 36.8037 22.5725 36.6415 22.7347C36.4793 22.8969 36.2593 22.988 36.0299 22.988Z" fill="black"/>
<path d="M36.0304 26.8537C35.4771 26.8537 34.9363 26.6897 34.4764 26.3823C34.0164 26.0749 33.6579 25.638 33.4462 25.1269C33.2346 24.6158 33.1792 24.0533 33.2872 23.5108C33.3952 22.9682 33.6617 22.4698 34.0529 22.0787C34.4442 21.6875 34.9426 21.4212 35.4852 21.3134C36.0279 21.2056 36.5903 21.2611 37.1013 21.4729C37.6124 21.6848 38.0492 22.0434 38.3564 22.5035C38.6636 22.9635 38.8275 23.5044 38.8273 24.0576C38.8267 24.7991 38.5317 25.5101 38.0073 26.0343C37.4829 26.5585 36.7719 26.8533 36.0304 26.8537ZM36.0304 22.9904C35.8193 22.9904 35.613 23.053 35.4374 23.1702C35.2619 23.2875 35.1251 23.4542 35.0444 23.6492C34.9636 23.8442 34.9425 24.0588 34.9836 24.2658C35.0248 24.4728 35.1265 24.663 35.2757 24.8123C35.425 24.9615 35.6151 25.0632 35.8222 25.1043C36.0292 25.1455 36.2438 25.1244 36.4388 25.0436C36.6338 24.9628 36.8005 24.826 36.9178 24.6505C37.035 24.475 37.0976 24.2687 37.0976 24.0576C37.0974 23.7746 36.9849 23.5033 36.7848 23.3032C36.5847 23.1031 36.3134 22.9906 36.0304 22.9904Z" fill="black"/>
<path d="M25.0807 41.7905C24.8513 41.7905 24.6313 41.6994 24.4691 41.5372C24.3069 41.375 24.2158 41.155 24.2158 40.9256V33.442C24.2154 33.0597 24.0633 32.6933 23.793 32.423C23.5228 32.1527 23.1563 32.0007 22.7741 32.0002H14.3131C14.0837 32.0002 13.8637 31.9091 13.7016 31.7469C13.5394 31.5847 13.4482 31.3647 13.4482 31.1354C13.4482 30.906 13.5394 30.686 13.7016 30.5238C13.8637 30.3616 14.0837 30.2705 14.3131 30.2705H22.7741C23.6149 30.2714 24.4211 30.6059 25.0156 31.2004C25.6102 31.795 25.9446 32.6011 25.9455 33.442V40.9256C25.9455 41.155 25.8544 41.375 25.6922 41.5372C25.53 41.6994 25.3101 41.7905 25.0807 41.7905Z" fill="black"/>
<path d="M32.3629 42.1061C32.1335 42.1061 31.9136 42.015 31.7514 41.8528C31.5892 41.6906 31.498 41.4706 31.498 41.2412V34.4615C31.498 34.2322 31.5892 34.0122 31.7514 33.85C31.9136 33.6878 32.1335 33.5967 32.3629 33.5967C32.5923 33.5967 32.8123 33.6878 32.9745 33.85C33.1367 34.0122 33.2278 34.2322 33.2278 34.4615V41.2412C33.2278 41.3548 33.2054 41.4673 33.1619 41.5722C33.1185 41.6771 33.0548 41.7725 32.9745 41.8528C32.8942 41.9331 32.7988 41.9968 32.6939 42.0403C32.589 42.0837 32.4765 42.1061 32.3629 42.1061Z" fill="black"/>
<path d="M32.3632 35.326C31.7289 35.326 31.1089 35.1379 30.5815 34.7855C30.0541 34.4331 29.6431 33.9323 29.4004 33.3463C29.1576 32.7603 29.0941 32.1155 29.2179 31.4934C29.3416 30.8713 29.647 30.2999 30.0955 29.8514C30.544 29.4029 31.1155 29.0975 31.7375 28.9737C32.3596 28.85 33.0044 28.9135 33.5904 29.1562C34.1764 29.3989 34.6772 29.81 35.0296 30.3374C35.382 30.8647 35.5701 31.4848 35.5701 32.119C35.5692 32.9693 35.231 33.7844 34.6298 34.3857C34.0286 34.9869 33.2134 35.325 32.3632 35.326ZM32.3632 30.6418C32.071 30.6418 31.7854 30.7285 31.5425 30.8908C31.2996 31.0531 31.1102 31.2838 30.9984 31.5537C30.8866 31.8237 30.8574 32.1207 30.9144 32.4072C30.9714 32.6938 31.1121 32.957 31.3186 33.1636C31.5252 33.3701 31.7884 33.5108 32.075 33.5678C32.3615 33.6248 32.6585 33.5956 32.9285 33.4838C33.1984 33.372 33.4291 33.1826 33.5914 32.9397C33.7537 32.6968 33.8404 32.4112 33.8404 32.119C33.8399 31.7274 33.6841 31.3519 33.4072 31.075C33.1303 30.7981 32.7548 30.6423 32.3632 30.6418Z" fill="black"/>
</svg>
